HIERARCHY
ROOT Hips
{
	OFFSET -21.947001 39.810204 44.525997
	CHANNELS 6 Xposition Yposition Zposition Zrotation Xrotation Yrotation
	JOINT Chest
	{
		OFFSET -0.201599 0.334099 6.453201
		CHANNELS 6 Xposition Yposition Zposition Zrotation Xrotation Yrotation
		JOINT Chest2
		{
			OFFSET 0.000000 0.000000 3.568001
			CHANNELS 6 Xposition Yposition Zposition Zrotation Xrotation Yrotation
			JOINT Neck
			{
				OFFSET 0.000000 0.000000 8.296402
				CHANNELS 6 Xposition Yposition Zposition Zrotation Xrotation Yrotation
				JOINT Head
				{
					OFFSET 0.000000 0.000000 2.173901
					CHANNELS 6 Xposition Yposition Zposition Zrotation Xrotation Yrotation
					End Site
					{
						OFFSET 0.000000 0.000000 7.891998
					}
				}
			}
			JOINT LeftCollar
			{
				OFFSET 1.927601 0.221401 6.049000
				CHANNELS 6 Xposition Yposition Zposition Zrotation Xrotation Yrotation
				JOINT LeftShoulder
				{
					OFFSET 4.959700 0.000000 0.000000
					CHANNELS 6 Xposition Yposition Zposition Zrotation Xrotation Yrotation
					JOINT LeftElbow
					{
						OFFSET 0.000000 0.000000 -8.654202
						CHANNELS 6 Xposition Yposition Zposition Zrotation Xrotation Yrotation
						JOINT LeftWrist
						{
							OFFSET 0.000000 0.000000 -13.864101
							CHANNELS 6 Xposition Yposition Zposition Zrotation Xrotation Yrotation
							End Site
							{
								OFFSET 0.000000 0.000000 -2.173901
							}
						}
					}
				}
			}
			JOINT RightCollar
			{
				OFFSET -3.155701 -0.764999 6.687801
				CHANNELS 6 Xposition Yposition Zposition Zrotation Xrotation Yrotation
				JOINT RightShoulder
				{
					OFFSET -3.592899 0.000000 0.000000
					CHANNELS 6 Xposition Yposition Zposition Zrotation Xrotation Yrotation
					JOINT RightElbow
					{
						OFFSET 0.000000 0.000000 -10.352398
						CHANNELS 6 Xposition Yposition Zposition Zrotation Xrotation Yrotation
						JOINT RightWrist
						{
							OFFSET 0.000000 0.000000 -12.750301
							CHANNELS 6 Xposition Yposition Zposition Zrotation Xrotation Yrotation
							End Site
							{
								OFFSET 0.000000 0.000000 -2.173901
							}
						}
					}
				}
			}
		}
	}
	JOINT LeftHip
	{
		OFFSET 2.460600 -0.518101 -2.735500
		CHANNELS 6 Xposition Yposition Zposition Zrotation Xrotation Yrotation
		JOINT LeftKnee
		{
			OFFSET 0.000000 -0.000004 -17.005899
			CHANNELS 6 Xposition Yposition Zposition Zrotation Xrotation Yrotation
			JOINT LeftAnkle
			{
				OFFSET 0.000000 0.000000 -19.194401
				CHANNELS 6 Xposition Yposition Zposition Zrotation Xrotation Yrotation
				End Site
				{
					OFFSET 0.000000 -8.134600 0.000000
				}
			}
		}
	}
	JOINT RightHip
	{
		OFFSET -3.115499 -0.679600 -2.320301
		CHANNELS 6 Xposition Yposition Zposition Zrotation Xrotation Yrotation
		JOINT RightKnee
		{
			OFFSET 0.000000 -0.000004 -17.680401
			CHANNELS 6 Xposition Yposition Zposition Zrotation Xrotation Yrotation
			JOINT RightAnkle
			{
				OFFSET 0.000000 0.000000 -16.993797
				CHANNELS 6 Xposition Yposition Zposition Zrotation Xrotation Yrotation
				End Site
				{
					OFFSET 0.000000 -8.842300 0.000000
				}
			}
		}
	}
}
MOTION
Frames: 8
Frame Time: 0.041667
-21.394197 20.249805 45.139492 2126.925716 -3.803661 -1.460010 -0.201599 0.334098 6.453204 0.203035 8.221083 -6.448410 0.000000 0.000008 3.567994 1.834544 -6.395819 -0.622352 -0.000005 0.000001 8.296404 -36.565790 11.909301 15.702461 0.000001 0.000004 2.173898 -1.003935 -1.294536 -4.048462 1.927603 0.221403 6.049006 -19.438821 5.406289 -3.044994 4.959702 -0.000001 0.000001 51.842198 -9.727906 -105.309469 -0.000002 -0.000005 -8.654200 66.189915 -5.329944 3.125202 0.000002 -0.000001 -13.864106 1356.799375 -162.359757 235.164233 -3.155705 -0.764993 6.687814 13.319640 -2.589887 81.553907 -3.592908 0.000004 0.000007 -45.203882 -63.768094 57.109312 -0.000004 -0.000002 -10.352392 -44.297325 -111.237731 -21.589431 0.000003 -0.000003 -12.750305 -630.492577 7.405423 32.271609 2.460601 -0.518098 -2.735497 -15.427760 4.217160 3.355262 -0.000003 -0.000006 -17.005899 -175.634654 173.118808 -165.464980 -0.000006 0.000003 -19.194399 378.116650 21.955848 -2.951199 -3.115499 -0.679598 -2.320297 -141.033311 -12.263748 -126.339430 -0.000002 -0.000010 -17.680405 1.635569 189.060797 -286.594246 0.000009 -0.000003 -16.993793 279.142591 30.718632 -55.847701
-21.398998 20.267206 45.149097 2127.033688 -3.848927 -1.476526 -0.201599 0.334098 6.453196 0.116122 8.270510 -6.440172 0.000000 0.000002 3.567990 1.834276 -6.406882 -0.624198 -0.000005 0.000004 8.296396 -36.599681 11.861973 15.713817 0.000001 0.000004 2.173907 -0.979025 -1.272912 -3.965551 1.927599 0.221408 6.049007 -19.488215 5.400231 -2.949847 4.959703 -0.000003 -0.000002 51.872135 -9.838816 -105.327521 -0.000004 -0.000006 -8.654194 66.221703 -5.336577 3.162175 0.000003 0.000006 -13.864095 1356.652498 -162.351315 235.200679 -3.155710 -0.764996 6.687803 13.307490 -2.705088 81.529086 -3.592901 0.000004 0.000007 -45.103328 -63.842960 57.128740 -0.000002 -0.000010 -10.352394 -44.342343 -111.167196 -21.707371 -0.000005 -0.000009 -12.750305 -630.515034 7.448046 32.345098 2.460601 -0.518103 -2.735494 -15.633808 4.275991 3.330387 -0.000002 -0.000004 -17.005899 -175.582567 173.171223 -165.429859 -0.000002 0.000003 -19.194397 378.189132 21.971182 -2.948433 -3.115493 -0.679597 -2.320302 -141.023435 -12.264121 -126.357011 0.000000 -0.000007 -17.680405 1.743996 188.986061 -286.573892 0.000000 0.000001 -16.993795 279.144804 30.836972 -55.611134
-21.405497 20.285809 45.156696 2127.119803 -3.893870 -1.513220 -0.201600 0.334102 6.453200 0.034655 8.318966 -6.371813 0.000000 0.000001 3.567996 1.853196 -6.406718 -0.622992 -0.000001 0.000003 8.296399 -36.692842 11.802199 15.722761 -0.000001 -0.000005 2.173899 -0.966183 -1.254933 -3.901487 1.927602 0.221406 6.048997 -19.502707 5.364615 -2.975447 4.959701 0.000005 0.000000 51.936400 -9.750975 -105.304489 0.000004 -0.000002 -8.654202 66.019017 -5.389717 3.197971 -0.000001 -0.000004 -13.864097 1356.859590 -162.344103 235.196526 -3.155703 -0.764996 6.687802 13.286101 -2.905871 81.432445 -3.592904 0.000003 -0.000003 -44.872642 -63.940618 57.209948 -0.000007 -0.000004 -10.352390 -44.374605 -111.095206 -21.800895 -0.000002 -0.000001 -12.750304 -630.605903 7.523706 32.361928 2.460599 -0.518095 -2.735495 -15.834627 4.328428 3.322893 -0.000004 -0.000003 -17.005905 -175.371992 173.225400 -165.392785 -0.000006 0.000002 -19.194397 378.156675 22.052483 -2.971868 -3.115499 -0.679597 -2.320303 -140.985801 -12.278449 -126.392869 0.000003 -0.000008 -17.680395 1.860026 188.941119 -286.568783 -0.000000 0.000000 -16.993793 279.144859 30.934852 -55.494379
-21.412399 20.304302 45.161789 2127.175756 -3.935847 -1.567643 -0.201600 0.334100 6.453198 -0.032538 8.350249 -6.261235 -0.000005 0.000004 3.568002 1.888656 -6.386842 -0.617747 -0.000003 0.000005 8.296392 -36.829405 11.742679 15.734632 -0.000001 0.000001 2.173905 -0.976258 -1.252579 -3.879983 1.927601 0.221404 6.048997 -19.535292 5.343094 -3.125311 4.959701 0.000001 0.000008 52.129004 -9.452713 -105.175549 -0.000007 -0.000002 -8.654196 65.766450 -5.504610 3.266076 -0.000002 -0.000002 -13.864095 1357.281641 -162.337901 235.179150 -3.155703 -0.764995 6.687801 13.276435 -3.135921 81.283370 -3.592899 0.000003 0.000005 -44.552002 -64.048808 57.356739 -0.000003 -0.000001 -10.352385 -44.527550 -111.049580 -21.998736 -0.000002 -0.000011 -12.750298 -630.842228 7.666220 32.305292 2.460597 -0.518103 -2.735503 -16.013184 4.370752 3.337055 -0.000006 -0.000005 -17.005905 -174.994610 173.278307 -165.361680 -0.000003 0.000003 -19.194399 378.023377 22.185657 -3.034654 -3.115497 -0.679600 -2.320303 -140.924602 -12.329161 -126.455051 0.000004 -0.000008 -17.680397 1.960707 188.917705 -286.582662 0.000003 -0.000004 -16.993793 279.139750 31.025817 -55.496544
-21.419897 20.320404 45.163994 2127.205481 -3.965572 -1.600327 -0.201601 0.334094 6.453202 -0.083453 8.359462 -6.177172 -0.000001 0.000001 3.567990 1.931871 -6.358511 -0.610867 -0.000006 0.000003 8.296400 -36.941491 11.698400 15.742336 0.000002 -0.000001 2.173905 -1.025405 -1.254577 -3.867747 1.927599 0.221400 6.049004 -19.559201 5.322585 -3.375800 4.959704 0.000001 0.000010 52.360148 -9.154251 -104.981408 0.000006 -0.000006 -8.654202 65.292545 -5.651436 3.361839 0.000001 0.000002 -13.864100 1357.867616 -162.331439 235.154343 -3.155700 -0.764996 6.687814 13.278295 -3.386065 81.123632 -3.592902 0.000003 0.000010 -44.153877 -64.156725 57.541858 -0.000008 0.000000 -10.352394 -44.754063 -111.025107 -22.250180 -0.000001 -0.000009 -12.750298 -631.118222 7.814197 32.217063 2.460599 -0.518102 -2.735504 -16.152296 4.408189 3.352340 -0.000007 -0.000003 -17.005901 -174.501552 173.329123 -165.360943 -0.000004 0.000007 -19.194401 377.797680 22.349421 -3.120148 -3.115498 -0.679600 -2.320301 -140.846888 -12.381153 -126.524678 -0.000006 -0.000004 -17.680393 2.038020 188.913525 -286.628315 0.000001 -0.000002 -16.993793 279.136799 31.056320 -55.623063
-21.428699 20.335108 45.163792 2127.227556 -3.991276 -1.604762 -0.201596 0.334105 6.453187 -0.132837 8.363059 -6.138056 0.000003 0.000001 3.567997 1.978323 -6.329305 -0.603608 -0.000007 0.000004 8.296409 -36.978197 11.672860 15.729299 -0.000004 0.000006 2.173900 -1.097202 -1.271617 -3.906697 1.927598 0.221403 6.049002 -19.539821 5.259818 -3.636640 4.959702 0.000001 0.000004 52.524414 -8.887487 -104.826608 -0.000002 -0.000001 -8.654202 64.581433 -5.795132 3.431016 -0.000002 0.000001 -13.864104 1358.636750 -162.324063 235.136529 -3.155707 -0.764993 6.687812 13.286575 -3.639097 80.981585 -3.592896 0.000003 0.000005 -43.722595 -64.259581 57.731026 -0.000008 -0.000009 -10.352382 -44.897292 -111.001270 -22.410570 0.000004 0.000007 -12.750301 -631.323292 7.982539 32.080623 2.460603 -0.518098 -2.735505 -16.263410 4.447418 3.355553 -0.000005 -0.000002 -17.005898 -173.931669 173.375377 -165.379671 -0.000001 0.000003 -19.194401 377.460788 22.568176 -3.197959 -3.115491 -0.679592 -2.320314 -140.775403 -12.404359 -126.570236 -0.000003 -0.000010 -17.680407 2.090408 188.957498 -286.675826 0.000008 -0.000010 -16.993795 279.110517 31.038931 -55.819065
-21.438597 20.348305 45.161793 2127.245697 -4.023944 -1.575346 -0.201602 0.334102 6.453200 -0.143126 8.367673 -6.163808 -0.000002 0.000005 3.568001 2.007462 -6.306020 -0.598369 -0.000007 0.000003 8.296391 -36.994009 11.650831 15.735561 0.000001 -0.000001 2.173906 -1.174219 -1.293068 -3.969700 1.927595 0.221404 6.048999 -19.533950 5.226440 -3.799337 4.959704 -0.000004 0.000003 52.654345 -8.679661 -104.707435 -0.000000 -0.000001 -8.654197 63.891843 -5.913855 3.453614 -0.000001 -0.000001 -13.864099 1359.403699 -162.329185 235.155599 -3.155707 -0.764995 6.687804 13.306322 -3.744555 80.916104 -3.592907 0.000004 0.000010 -43.482767 -64.323067 57.842283 -0.000004 -0.000006 -10.352398 -44.964354 -110.960439 -22.484921 0.000001 -0.000008 -12.750303 -631.419242 8.165841 32.016017 2.460601 -0.518097 -2.735502 -16.342763 4.499339 3.341021 -0.000005 0.000001 -17.005899 -173.419063 173.406605 -165.398194 -0.000002 0.000001 -19.194401 377.122966 22.758856 -3.263474 -3.115494 -0.679596 -2.320302 -140.711473 -12.410164 -126.574798 -0.000005 -0.000011 -17.680405 2.124581 189.001156 -286.721178 0.000005 -0.000006 -16.993795 279.097403 31.004346 -56.016062
-21.448196 20.359304 45.158894 2127.266898 -4.045028 -1.535481 -0.201598 0.334099 6.453192 -0.147618 8.351997 -6.225014 -0.000002 -0.000000 3.568002 2.029897 -6.290084 -0.594410 -0.000008 0.000007 8.296396 -36.969447 11.641477 15.754899 0.000000 -0.000002 2.173899 -1.227276 -1.324013 -4.039871 1.927599 0.221403 6.048999 -19.526524 5.201140 -3.879212 4.959703 0.000001 -0.000007 52.758761 -8.458188 -104.630575 -0.000002 0.000000 -8.654199 63.519304 -6.006515 3.448525 0.000007 -0.000010 -13.864094 1359.912520 -162.327451 235.208219 -3.155708 -0.764995 6.687804 13.332590 -3.751068 80.892608 -3.592901 0.000004 0.000002 -43.349927 -64.381022 57.906767 -0.000008 0.000003 -10.352398 -45.126271 -110.897868 -22.641517 -0.000003 -0.000002 -12.750306 -631.499729 8.313052 32.059214 2.460603 -0.518102 -2.735513 -16.390273 4.538084 3.330011 -0.000005 0.000001 -17.005898 -173.006096 173.420935 -165.421103 -0.000007 0.000003 -19.194399 376.808149 22.910893 -3.309519 -3.115493 -0.679601 -2.320310 -140.671120 -12.418912 -126.580754 -0.000004 -0.000002 -17.680393 2.127914 189.020841 -286.768279 -0.000003 -0.000005 -16.993790 279.112129 30.980775 -56.179696
